<svg xmlns="http://www.w3.org/2000/svg" xmlns:xlink="http://www.w3.org/1999/xlink" version="1.1" x="0px" y="0px" viewBox="0 0 32 40" enable-background="new 0 0 32 32" xml:space="preserve"><path d="M28,7H4C2.8954468,7,2,7.8954468,2,9v14c0,1.1045532,0.8954468,2,2,2h24c1.1045532,0,2-0.8954468,2-2V9  C30,7.8954468,29.1045532,7,28,7z M28,8c0.0454102,0,0.0843506,0.0200195,0.1281738,0.0259399L16.0493164,17.03125  L3.8753662,8.0252686C3.9180298,8.0196533,3.9558105,8,4,8H28z M29,23c0,0.5513916-0.4486084,1-1,1H4c-0.5513916,0-1-0.4486084-1-1  V9c0-0.1164551,0.0297241-0.2244873,0.0665283-0.3285522l12.4324951,9.1937866C15.6499023,17.953125,15.8232422,18,16,18  s0.3500977-0.046875,0.5454102-0.1640625l12.3880615-9.1644287C28.9702148,8.7755127,29,8.8835449,29,9V23z"/></svg>