<svg xmlns:dc="http://purl.org/dc/elements/1.1/" xmlns:cc="http://creativecommons.org/ns#" xmlns:rdf="http://www.w3.org/1999/02/22-rdf-syntax-ns#" xmlns:svg="http://www.w3.org/2000/svg" xmlns="http://www.w3.org/2000/svg" xmlns:sodipodi="http://sodipodi.sourceforge.net/DTD/sodipodi-0.dtd" xmlns:inkscape="http://www.inkscape.org/namespaces/inkscape" version="1.1" x="0px" y="0px" viewBox="0 0 100 125"><g transform="translate(0,-952.36218)"><path style="text-indent:0;text-transform:none;direction:ltr;block-progression:tb;baseline-shift:baseline;color:#000000;enable-background:accumulate;" d="m 37.687497,958.36217 c -1.075899,0.1188 -1.9752,1.1331 -1.9688,2.2188 l 0,6.2812 c 0.053,1.9017 0.9694,2.586 2.6563,2.625 l 4.5313,0 0,1.0625 -21.3126,0 c -4.2025,0 -7.5624,3.5179 -7.5624,7.7187 l 0,3.9688 c 0,1.1623 1.06,2.2186 2.2187,2.2188 l 67.593701,0 c 1.1588,0 2.2187,-1.0565 2.2188,-2.2188 l 0,-3.9688 c 0,-4.22 -3.4536,-7.7187 -7.6562,-7.7187 l -21.312601,0 0,-1.0625 4.5938,0 c 1.980901,0.01 2.549801,-0.9442 2.625001,-2.6562 l 0,-6.25 c 0,-1.1624 -1.060001,-2.2187 -2.218801,-2.2188 l -24.4062,0 z m 9.625,11.125 5.375,0 0,1.0625 -5.375,0 0,-1.0625 z" fill="#000000" fill-opacity="1" fill-rule="evenodd" stroke="none" marker="none" visibility="visible" display="inline" overflow="visible"/><path style="text-indent:0;text-transform:none;direction:ltr;block-progression:tb;baseline-shift:baseline;color:#000000;enable-background:accumulate;" d="m 17.343698,986.08097 c -1.1582,0 -2.2186,1.0564 -2.2187,2.2187 l 0,3.8437 -3.156301,0 c -1.813199,0 -3.4077995,0.763 -4.4373995,1.9376 -1.0301,1.1741 -1.5313,2.6517 -1.5313,4.0937 0,1.442 0.5012,2.91963 1.5313,4.09373 1.0296,1.1746 2.6241995,1.9376 4.4373995,1.9376 l 3.156301,0 0,30.3437 c 0,2.9414 2.411999,5.375 5.343699,5.375 l 1.5313,0 0,4.2187 c 0,1.1624 1.0605,2.2187 2.2187,2.2188 l 9.75,0 c 1.1587,0 2.2187,-1.0564 2.2188,-2.2188 l 0,-4.2187 27.625,0 0,4.2187 c 0,1.1624 1.060101,2.2187 2.218801,2.2188 l 9.75,0 c 1.1583,0 2.2186,-1.0564 2.2187,-2.2188 l 0,-4.2187 1.5625,0 c 2.932199,0 5.375,-2.4 5.375,-5.375 l 0,-30.3437 3.125,0 c 1.808105,0 3.414505,-0.7619 4.437505,-1.9376 1.0228,-1.1751 1.5,-2.65553 1.5,-4.09373 0,-1.4382 -0.4772,-2.9186 -1.5,-4.0937 -1.023,-1.1757 -2.6294,-1.9376 -4.437505,-1.9376 l -3.125,0 0,-3.4687 c -0.034,-1.618 -0.6999,-2.5557 -2.5938,-2.5937 l -65.000001,0 z m 2.218799,4.4374 2.1875,0 0,10.40633 c 0,1.8139 0.7344,3.4739 1.9063,4.5 1.1716,1.0261 2.66,1.4687 4.0937,1.4687 1.4336,0 2.9223,-0.4426 4.0937,-1.4687 1.172,-1.0261 1.9376,-2.6861 1.9376,-4.5 l 0,-10.40633 1.8437,0 0,21.84383 c 0,1.8193 0.7666,3.4667 1.9375,4.5 1.1707,1.0333 2.6563,1.5 4.0938,1.5 1.437101,0 2.860301,-0.4667 4.0312,-1.5 1.1708,-1.0333 1.9375,-2.6807 1.9375,-4.5 l 0,-21.84383 32.906301,0 0,44.03133 c 0,0.486 -0.4507,0.9375 -0.9688,0.9375 l -59.093801,0 c -0.5175,0 -0.9062,-0.4179 -0.9062,-0.9375 l 0,-32.5625 0,-3.56253 0,-7.9063 z m -7.5938,6.0626 3.156301,0 0,1.8437 0,1.3437 -3.156301,0 c -0.695299,0 -0.9003,-0.1817 -1.125,-0.4374 -0.224299,-0.2562 -0.406199,-0.6908 -0.406199,-1.1563 0,-0.4655 0.1819,-0.9001 0.406199,-1.1563 0.2247,-0.2557 0.429701,-0.4374 1.125,-0.4374 z m 72.968801,0 3.125,0 c 0.681405,0 0.903205,0.1512 1.125005,0.4062 0.222,0.255 0.375,0.7182 0.375,1.1875 0,0.4693 -0.153,0.9325 -0.375,1.1875 -0.2218,0.255 -0.4436,0.4062 -1.125005,0.4062 l -3.125,0 0,-3.1874 z m -58.500001,43.34373 5.3125,0 0,2 -5.3125,0 0,-2 z m 41.812501,0 5.3125,0 0,2 -5.3125,0 0,-2 z" fill="#000000" fill-opacity="1" fill-rule="evenodd" stroke="none" marker="none" visibility="visible" display="inline" overflow="visible"/></g></svg>