<svg xmlns="http://www.w3.org/2000/svg" viewBox="0 0 64 80" x="0px" y="0px"><g><path d="M61.893,28.569c-.013-.027-.02-.057-.036-.084l-12-20A1,1,0,0,0,49,8H47.01A5.016,5.016,0,0,0,42,13.01v.372L2.553,33.1a2,2,0,0,0-.264.194,1.017,1.017,0,0,0-.2.3c-.013.03-.016.063-.026.094A2.214,2.214,0,0,0,2,34v6a1,1,0,0,0,1,1h8V51a4,4,0,0,0,8,0V47.463a4.16,4.16,0,0,0,4,0V48a4,4,0,0,0,8,0V41H61a1,1,0,0,0,1-1V29a.987.987,0,0,0-.07-.344C61.919,28.626,61.907,28.6,61.893,28.569ZM11,39H4V35h7Zm18,9a2,2,0,0,1-4,0V44a1,1,0,0,0-2,0,2,2,0,0,1-4,0,1,1,0,0,0-2,0v7a2,2,0,0,1-4,0V35H29ZM7.236,33,42.619,15.309,53.234,33ZM54,39H31V35H54Zm.4-7.946L44,13.723V13.01A3.014,3.014,0,0,1,47.01,10h1.424l10.8,18H59.01A5.016,5.016,0,0,0,54.4,31.054ZM60,39H56V33.01A3.014,3.014,0,0,1,59.01,30H60Z"/><path d="M44,25a3,3,0,1,0,3,3A3,3,0,0,0,44,25Zm0,4a1,1,0,1,1,1-1A1,1,0,0,1,44,29Z"/><path d="M36,21a3,3,0,1,0,3,3A3,3,0,0,0,36,21Zm0,4a1,1,0,1,1,1-1A1,1,0,0,1,36,25Z"/><path d="M21,29H20a1,1,0,0,0,0,2h1a1,1,0,0,0,0-2Z"/><path d="M29,27H28a1,1,0,0,0,0,2h1a1,1,0,0,0,0-2Z"/><path d="M35,29H34a1,1,0,0,0,0,2h1a1,1,0,0,0,0-2Z"/><path d="M42,20a1,1,0,0,0-1-1H40a1,1,0,0,0,0,2h1A1,1,0,0,0,42,20Z"/></g></svg>